HIERARCHY
ROOT Hips
{
	OFFSET 0.000000 0.000000 0.000000 
	CHANNELS 6 Xposition Yposition Zposition Zrotation Yrotation Xrotation
	JOINT LeftUpLeg
	{
		OFFSET 1.363060 -1.794630 0.839290 
		CHANNELS 3 Zrotation Yrotation Xrotation
		JOINT LeftLeg
		{
			OFFSET 2.448110 -6.726130 0.000000 
			CHANNELS 3 Zrotation Yrotation Xrotation
			JOINT LeftFoot
			{
				OFFSET 2.562200 -7.039590 0.000000 
				CHANNELS 3 Zrotation Yrotation Xrotation
				JOINT LeftToeBase
				{
					OFFSET 0.157640 -0.433110 2.322550 
					CHANNELS 3 Zrotation Yrotation Xrotation
					End Site
					{
						OFFSET 0.000000 0.000000 0.000000 
					}
				}
			}
		}
	}
	JOINT RightUpLeg
	{
		OFFSET -1.305520 -1.794630 0.839290 
		CHANNELS 3 Zrotation Yrotation Xrotation
		JOINT RightLeg
		{
			OFFSET -2.542530 -6.985550 0.000000 
			CHANNELS 3 Zrotation Yrotation Xrotation
			JOINT RightFoot
			{
				OFFSET -2.568260 -7.056230 0.000000 
				CHANNELS 3 Zrotation Yrotation Xrotation
				JOINT RightToeBase
				{
					OFFSET -0.164730 -0.452590 2.363150 
					CHANNELS 3 Zrotation Yrotation Xrotation
					End Site
					{
						OFFSET 0.000000 0.000000 0.000000 
					}
				}
			}
		}
	}
	JOINT Spine
	{
		OFFSET 0.028270 2.035590 -0.193380 
		CHANNELS 3 Zrotation Yrotation Xrotation
		JOINT Spine1
		{
			OFFSET 0.056720 2.048850 -0.042750 
			CHANNELS 3 Zrotation Yrotation Xrotation
			JOINT Neck1
			{
				OFFSET -0.054170 1.746240 0.172020 
				CHANNELS 3 Zrotation Yrotation Xrotation
				JOINT Head
				{
					OFFSET 0.104070 1.761360 -0.123970 
					CHANNELS 3 Zrotation Yrotation Xrotation
					End Site
					{
						OFFSET 0.000000 0.000000 0.000000 
					}
				}
			}
			JOINT LeftArm
			{
				OFFSET 3.362410 1.200890 -0.311210 
				CHANNELS 3 Zrotation Yrotation Xrotation
				JOINT LeftForeArm
				{
					OFFSET 4.983000 -0.000000 -0.000000 
					CHANNELS 3 Zrotation Yrotation Xrotation
					JOINT LeftHand
					{
						OFFSET 3.483560 -0.000000 -0.000000 
						CHANNELS 3 Zrotation Yrotation Xrotation
						JOINT LeftHandIndex1
						{
							OFFSET 0.715260 -0.000000 -0.000000 
							CHANNELS 3 Zrotation Yrotation Xrotation
							End Site
							{
								OFFSET 0.000000 0.000000 0.000000 
							}
						}
					}
				}
			}
			JOINT RightArm
			{
				OFFSET -3.136600 1.374050 -0.404650 
				CHANNELS 3 Zrotation Yrotation Xrotation
				JOINT RightForeArm
				{
					OFFSET -5.241900 -0.000000 -0.000000 
					CHANNELS 3 Zrotation Yrotation Xrotation
					JOINT RightHand
					{
						OFFSET -3.444170 -0.000000 -0.000000 
						CHANNELS 3 Zrotation Yrotation Xrotation
						JOINT RightHandIndex1
						{
							OFFSET -0.622530 -0.000000 -0.000000 
							CHANNELS 3 Zrotation Yrotation Xrotation
							End Site
							{
								OFFSET 0.000000 0.000000 0.000000 
							}
						}
					}
				}
			}
		}
	}
}
MOTION
Frames: 9
Frame Time: 0.041667
17.918126 18.381183 -3.506780 -0.291914 -10.387440 6.622599 -4.675853 -6.815552 -25.597852 -0.187456 5.997327 17.525318 -1.740311 9.586539 11.279566 0.816900 5.767300 16.110800 13.479038 8.335663 3.848159 -0.908797 -6.402865 20.972452 -0.357299 -0.880277 10.470540 -1.007200 6.385900 -17.908200 -2.449960 0.969759 3.334875 -1.671595 0.575681 0.921633 16.783820 -17.384746 10.215634 5.174500 -8.125700 6.625700 -88.000783 15.401623 32.896614 101.044011 -59.467260 -75.417697 0.034302 -1.887485 31.923510 -7.125000 0.000000 0.000000 80.947682 -7.063359 -25.598401 -7.968182 10.549306 -1.014592 -0.175912 -2.627022 42.806560 7.125000 0.000000 0.000000 
17.949301 18.400940 -3.347530 0.386063 -10.291533 6.560081 -5.629031 -6.836742 -25.382868 -0.151157 6.077697 17.941501 -1.642579 9.049622 10.856248 0.924400 6.125200 17.148200 12.450487 8.003404 2.879274 -1.168806 -6.987035 22.678682 -0.526678 -0.428426 11.779272 -1.088800 6.631600 -18.628400 -2.727751 0.808050 3.163880 -1.467019 0.470260 0.774024 16.993909 -17.445395 10.228177 5.272600 -8.155800 6.675200 -87.877586 15.661456 32.524416 101.142777 -59.447753 -75.488757 0.032275 -1.875298 31.481091 -7.125000 0.000000 0.000000 80.995820 -8.064663 -28.074978 -7.823062 10.451956 -0.988403 -0.386013 -2.610239 45.253172 7.125000 0.000000 0.000000 
17.969754 18.408287 -3.181826 0.481167 -10.218417 6.259541 -6.002836 -6.681450 -24.913233 -0.101353 6.216418 18.402981 -1.554306 8.603231 10.467629 1.133900 6.762800 19.014500 12.235315 8.069402 2.430884 -1.473899 -7.585556 24.472025 -0.581576 -0.507261 13.278769 -0.936100 6.162800 -17.257400 -2.747582 0.692769 3.107777 -1.371978 0.400048 0.561330 17.206366 -17.402967 9.720155 5.408000 -8.182600 6.490000 -87.905076 16.025381 32.072650 101.456163 -59.434558 -75.726476 0.020616 -1.860796 31.261683 -7.125000 0.000000 0.000000 80.997496 -9.350557 -28.364660 -7.923802 10.671924 -1.007037 -0.528374 -2.419010 45.771704 7.125000 0.000000 0.000000 
17.982760 18.408089 -3.029030 0.050807 -10.206419 6.200159 -5.849056 -6.256081 -24.773751 -0.044131 6.387811 18.886898 -1.394856 7.944946 10.175163 1.125100 6.737400 18.939700 12.711830 8.570938 1.958707 -1.823036 -8.163534 26.291310 -0.537680 -1.107276 14.994453 -0.710200 5.386000 -15.012900 -2.639728 0.686303 3.194728 -1.454735 0.389744 0.598374 17.523106 -17.553841 9.299945 5.501200 -8.260400 6.446000 -87.771091 16.035503 31.772208 101.855051 -59.420155 -75.995196 0.032386 -1.853095 31.095637 -7.125000 0.000000 0.000000 80.842963 -10.109686 -30.306120 -7.652123 10.347946 -0.944886 -0.688797 -2.283447 48.637910 7.125000 0.000000 0.000000 
18.001127 18.429236 -2.882388 -0.172061 -10.328488 6.142730 -5.744135 -6.198098 -24.458405 0.007211 6.524680 19.303085 -1.343237 7.572541 9.417298 1.222700 7.013500 19.755400 12.849234 8.991790 1.279575 -2.179563 -8.726192 28.070315 -0.581638 -1.506806 16.942997 -0.510300 4.578800 -12.711000 -2.656873 0.698043 3.336403 -1.527676 0.383572 0.679207 17.740411 -17.635297 9.005105 5.508200 -8.277400 6.438700 -87.397797 15.725009 31.594508 101.899193 -59.402059 -75.970429 0.061064 -1.851831 30.470304 -7.125000 0.000000 0.000000 80.691240 -10.467516 -33.144734 -7.252422 9.849886 -0.868876 -0.928037 -2.300476 52.586422 7.125000 0.000000 0.000000 
18.025054 18.450979 -2.734258 0.139280 -10.294827 5.968058 -6.146990 -6.502244 -23.934236 0.056375 6.626371 19.720995 -1.323779 7.253382 8.441945 1.423000 7.543700 21.336400 12.321543 9.067268 0.334768 -2.582579 -9.356678 30.052120 -0.730236 -1.576007 18.911981 -0.297200 3.505400 -9.689200 -2.832163 0.576524 3.271310 -1.434995 0.303855 0.483183 17.671203 -17.744580 9.152341 5.433100 -8.304900 6.526400 -87.046354 15.739615 31.406833 101.746998 -59.385616 -75.816362 0.062089 -1.845932 29.837798 -7.125000 0.000000 0.000000 80.718501 -11.246573 -33.221747 -7.237507 9.863257 -0.869121 -1.036927 -2.324698 52.913843 7.125000 0.000000 0.000000 
18.045606 18.474708 -2.582255 0.512543 -10.142258 5.792055 -6.833378 -6.290511 -23.634851 0.074558 6.668273 19.956857 -1.190521 6.671314 8.155394 0.976200 6.289700 17.627200 11.803270 9.192706 -0.624834 -3.045111 -10.017454 32.185946 -0.880529 -1.705712 20.798868 -0.147000 2.471100 -6.809400 -2.986250 0.431534 3.142564 -1.282975 0.215567 0.234639 17.798900 -17.884692 9.156886 5.467500 -8.368400 6.567700 -86.754277 15.975647 31.308914 101.777453 -59.371425 -75.813012 0.061595 -1.838843 29.428582 -7.125000 0.000000 0.000000 80.780011 -12.266383 -31.828738 -7.336331 9.999296 -0.883831 -0.969667 -2.372755 51.768424 7.125000 0.000000 0.000000 
18.057222 18.464879 -2.440678 0.471236 -10.105535 5.657002 -7.263562 -5.434830 -23.576242 0.058629 6.660600 19.943734 -1.033731 6.160809 8.489673 0.335800 3.724100 10.301700 11.857242 9.561649 -1.608908 -3.583854 -10.695661 34.567961 -1.036486 -1.556525 22.176706 -0.160000 2.577600 -7.104800 -3.019315 0.335864 3.143086 -1.233554 0.158462 0.178144 18.190112 -17.828765 8.669801 5.623800 -8.366000 6.408900 -86.447026 16.117266 31.143357 101.998565 -59.356646 -75.936660 0.068911 -1.832156 28.850592 -7.125000 0.000000 0.000000 80.844501 -12.906823 -32.219444 -7.230557 9.855409 -0.855240 -0.932623 -2.339637 53.173728 7.125000 0.000000 0.000000 
18.066158 18.448795 -2.313992 0.398463 -10.044651 5.649440 -7.636241 -4.529045 -23.494683 0.020124 6.602579 19.776942 -0.888733 5.699497 8.836848 0.063200 1.622200 4.462600 11.955252 9.891096 -2.799519 -4.135641 -11.342847 36.982400 -1.234412 -0.953737 23.176531 -0.322000 3.647300 -10.086500 -2.968968 0.195371 3.130008 -1.113064 0.075936 0.178148 18.340995 -17.760485 8.408544 5.711000 -8.353800 6.326300 -86.334074 16.198942 30.826196 101.956991 -59.350425 -75.854499 0.076768 -1.832834 28.612885 -7.125000 0.000000 0.000000 80.842479 -13.375457 -34.052955 -7.092917 9.712843 -0.823971 -0.981235 -2.176763 56.387205 7.125000 0.000000 0.000000 
